<?xml version="1.0"?><svg width="263.64981" height="580.83771" xmlns="http://www.w3.org/2000/svg">
 <title>man icon symbol green</title>

 <metadata id="metadata3206">image/svg+xml</metadata>
 <g>
  <title>Layer 1</title>
  <g id="layer1">
   <path d="m200.590256,369.91925l0,205.28125l-61.5,0l0,-204.53125l-14.499992,0l0,204.53125l-61.500004,0l0,-205.28125l0,-175.78125l-16.0625,0l0,151.0625l-41.5,0l0,-152.28125c0,-24.93454 20.565469,-52.28125 45.5,-52.28125l161.593746,0c25.404938,0 45.500015,28.876312 45.500015,54.28125l0,150.28125l-41.500015,0l0,-151.0625l-16.03125,0l0,175.78125zm-68.59375,-364.28125c-36.846008,0 -66.749992,29.903988 -66.749992,66.75c0,36.846008 29.904015,66.75 66.749992,66.75c36.846008,0 66.75,-29.903992 66.75,-66.75c0,-36.846012 -29.903992,-66.74998 -66.75,-66.75z" id="path3724" stroke-dashoffset="0" stroke-miterlimit="4" stroke-linejoin="round" stroke-linecap="round" stroke-width="1.5" fill-rule="nonzero" fill="#f79646"/>
  </g>
 </g>
</svg>