<?xml version="1.0" encoding="UTF-8"?>
<svg width="640" height="480" xmlns="http://www.w3.org/2000/svg" xmlns:svg="http://www.w3.org/2000/svg" xmlns:xlink="http://www.w3.org/1999/xlink">
 <title>red tractor</title>
 <defs>
  <linearGradient id="linearGradient2453">
   <stop offset="0" stop-color="#1a1c1a" id="stop2455"/>
   <stop offset="1" stop-color="#c3c6c6" id="stop2457"/>
  </linearGradient>
  <linearGradient id="linearGradient3217">
   <stop offset="0" stop-color="#000000" id="stop3219"/>
   <stop offset="1" stop-opacity="0" stop-color="#000000" id="stop3221"/>
  </linearGradient>
  <linearGradient id="linearGradient3201">
   <stop offset="0" stop-color="#373737" id="stop3203"/>
   <stop offset="1" stop-opacity="0" stop-color="#000000" id="stop3205"/>
  </linearGradient>
  <linearGradient id="linearGradient3176">
   <stop offset="0" stop-color="#000000" id="stop3178"/>
   <stop offset="1" stop-color="#1b140f" id="stop3180"/>
  </linearGradient>
  <radialGradient xlink:href="#linearGradient3176" fy="468.336" fx="182.227" r="120.472" cy="468.336" cx="182.227" gradientTransform="matrix(0.98756 -2.39406 1.22898 0.506957 -573.311 657.821)" gradientUnits="userSpaceOnUse" id="radialGradient3182"/>
  <linearGradient xlink:href="#linearGradient3201" y2="Infinity" x2="0.106386" y1="-Infinity" x1="0.720263" id="linearGradient3207"/>
  <linearGradient xlink:href="#linearGradient3201" y2="Infinity" x2="0.106386" y1="-Infinity" x1="0.720263" id="linearGradient3211"/>
  <linearGradient xlink:href="#linearGradient3217" y2="Infinity" x2="0.126607" y1="-Infinity" x1="2.28426" id="linearGradient3223"/>
  <linearGradient xlink:href="#linearGradient3201" y2="Infinity" x2="0.106386" y1="-Infinity" x1="2.24406" id="linearGradient3227"/>
  <linearGradient xlink:href="#linearGradient3217" y2="Infinity" x2="0.126607" y1="-Infinity" x1="1.54791" id="linearGradient3237"/>
  <linearGradient xlink:href="#linearGradient3217" y2="-Infinity" x2="0.827975" y1="Infinity" x1="-0.228134" id="linearGradient3247"/>
  <linearGradient xlink:href="#linearGradient2453" y2="0.412877" x2="-0.804117" y1="0.413648" x1="1.0305" id="linearGradient2459"/>
 </defs>
 <metadata id="metadata7">image/svg+xml</metadata>
 <g>
  <title>Layer 1</title>
  <path d="m360.29999,95.5119l-2.15698,4.7455l-3.02002,163.50258c0,0 1.00299,3.78604 2.58801,4.74503c2.21698,1.34201 6.43298,1.80999 8.62799,0.432c1.37402,-0.863 2.58899,-4.74603 2.58899,-4.74603l2.58801,-163.07077l-1.72497,-4.7455l0,-15.9619c0,0 -2.50403,-2.3495 -3.883,-2.5885c-1.57703,-0.2732 -5.177,1.2942 -5.177,1.2942l-0.43103,16.3934l0,0l0,0l0,-0.00001z" stroke-width="1px" fill-rule="evenodd" fill="url(#linearGradient2459)" id="path2451"/>
  <g id="layer3">
   <path d="m500.495,308.23901a80.6375,80.0133 0 1 1 -161.27503,0a80.6375,80.0133 0 1 1 161.27503,0z" stroke-width="0" stroke-miterlimit="4" fill="#000000" id="path2396"/>
  </g>
  <path d="m177.41901,97.4013l64.92596,1.9285l1.28503,12.2137l54.64099,-0.6428l2.57099,119.5653l12.85602,0l-4.49903,-124.7079l25.07001,-16.7135l0,-20.57039l-158.77795,1.92839l1.92798,26.9987z" stroke-width="1px" fill-rule="evenodd" fill="#666666" id="path3275"/>
  <path d="m187.73798,161.948c1.72503,-4.314 14.66705,-21.57001 14.66705,-21.57001l3.01996,-5.17699l-5.60797,-25.0213l3.45099,-8.1967l5.177,-4.3141l20.70801,-3.8826l6.039,6.4711l0,10.3537l2.58899,9.9223l-3.883,1.7256l0,4.746l-0.43103,4.745l-4.74597,3.45101l-2.58802,1.72599l0.86298,12.51101l6.90204,12.942l10.78497,6.47099l16.39405,10.785l4.31396,4.314l0,10.354l12.51001,-24.58999l3.883,-3.45201l3.88299,1.29501l1.29401,3.45099l-4.74597,10.354l-0.43103,9.05901l2.58801,2.157l5.60901,4.74499l9.922,17.257l9.49096,0.431l10.35401,-15.962l9.48999,6.04001l-7.33295,12.942l2.58795,1.29399l17.25604,-11.216l3.45099,48.317l-59.10199,-0.431l-47.02301,-73.771l-52.20001,-13.80499l0.86298,-6.47101z" stroke-width="1px" fill-rule="evenodd" fill="#434345" id="path3236"/>
  <path d="m209.94098,305.08499l76.33099,29.58402l160.49805,0.74099l47.34699,-71.41c0,0 12.08599,-41.537 -0.659,-66.798c-4.35303,-8.627 -11.914,-11.349 -21.50702,-12.50499c-22.01001,-2.65101 -80.06299,-6.93401 -130.27197,-6.68601c1.08697,17.411 4.328,51.377 4.40899,77.869c-16.26202,0.775 -43.04901,1.236 -49.85803,0.905c-11.70697,-23.742 -36.17297,-71.23401 -51.29797,-83.26401c-22.54999,-3.22399 -67.78003,-8.50399 -89.95001,-7.73899c-20.30298,0.69999 -55.9,-4.568 -66.80301,11.087c-5.97599,8.58 -0.86698,15.105 -5.13599,24.65c-4.19601,9.38 -22.827,25.53801 -22.827,25.53801l39.85801,21.43399l109.86697,56.59399z" stroke-width="1.05095px" fill-rule="evenodd" fill="#ff0000" id="path2390"/>
  <path d="m278.55402,50.4081c-41.86603,-0.0791 -85.70405,1.6143 -98.40705,5.2187c-8.45898,2.4004 -11.67395,17.16849 -11.67395,17.16849l-8.669,94.2447c31.25201,2.49301 81.677,5.26203 86.96795,9.61801c18.84705,15.515 50.03205,83.34398 50.03205,83.34398l53.406,0l-8.906,-173.43768l9.875,-7.6875l2.93701,-10.7955c0,0 -13.20203,-13.0679 -18.75604,-13.4952c-16.53998,-1.2725 -31.68701,-4.1305 -56.80597,-4.178zm-96.469,28l57.78101,0.6562c0,0 0.51996,8.1258 1.43799,92.6247c-5.78101,-2.493 -34.516,-5.1 -62.81299,-7.59301l3.59399,-85.68789zm149.719,0.4375l10.71795,175.9064l-47.31195,0.062c0,0 -22.49603,-52.98101 -47.18805,-79.75l-1.71795,-95.6247l85.5,-0.5937z" stroke-width="0.965573px" fill-rule="evenodd" fill="#1a1a1a" id="path2400"/>
  <path d="m58.11899,229.69701c1.04901,-4.81101 8.42401,-13.01902 16.082,-21.44301c7.65802,-8.424 30.06201,-32.45999 52.84201,-36.76c30.84299,-5.821 80.496,1.03701 105.68399,3.83c4.04602,0.448 9.91101,1.199 13.01898,3.829c14.77106,12.5 39.04706,56.817 50.54401,83.47499c6.95703,16.12903 -9.19,72.75302 -9.19,72.75302l-76.58197,-29.18802l-124.064,-63.47699l-16.08701,-11.476c0,0 -4.08599,2.221 -5.971,2.042c-2.159,-0.20501 -6.73999,-1.46601 -6.27701,-3.58499z" stroke-width="1px" fill-rule="evenodd" fill="url(#radialGradient3182)" id="path2404"/>
  <path d="m346.435,211.648l151.29602,0" stroke-width="1px" stroke="#000000" fill-rule="evenodd" fill="none" id="path3314"/>
  <path d="m168.65802,74.07121l186.21899,-4.90051c0,0 -5.419,-8.5234 -8.16699,-10.8901c-4.31799,-3.7183 -11.18701,-8.4605 -16.88,-8.712c-36.052,-1.5927 -86.66699,-2.7527 -123.60102,0.5445c-9.41601,0.8406 -23.82202,-0.6635 -31.03698,5.445c-4.495,3.8059 -6.534,18.5131 -6.534,18.5131l0,0.00001z" stroke-width="1px" fill-rule="evenodd" fill="#ff0000" id="path3318"/>
  <path d="m142.44,166.26199l7.33399,-76.35829l20.70703,-15.96201l0.86297,-12.94219l-16.393,-0.8628l-0.86298,12.5108l1.72601,-1.29431l-9.49102,5.60831l-4.74598,0.2157l-0.43103,10.78509l4.745,0.64711" stroke-width="1px" stroke="#000000" fill-rule="evenodd" fill="#18181a" id="path2437"/>
  <g display="inline" id="layer4">
   <path d="m177.00403,167.15401l3.60296,-85.6844l57.78302,0.66789c0,0 0.49897,8.0972 1.417,92.59649c-5.78101,-2.49398 -34.50702,-5.08699 -62.80298,-7.57998z" stroke-width="0.918886px" fill-rule="evenodd" fill="#3f3f3f" id="path2392"/>
   <path d="m246.64801,178.09599l-1.72198,-95.61419l85.49298,-0.5801l10.70898,175.8833l-47.32001,0.06099c0,0 -22.46899,-52.98099 -47.15997,-79.75z" stroke-width="1.02239px" fill-rule="evenodd" fill="#3f3f3f" id="path2402"/>
   <path d="m148.70502,92.9037l-7.76502,75.49629l17.68799,0.431l8.62799,-89.73229" stroke-width="1px" stroke="#000000" fill-rule="evenodd" fill="#3f3f3f" id="path3210"/>
   <path d="m152.15698,74.7846c0,0 -4.89099,0.3213 -4.52997,-3.2355c0.40198,-3.9628 -0.24603,-3.9454 0.21601,-5.6082c0.86297,-3.111 5.177,-3.0199 5.177,-3.0199l-0.86304,11.8636z" stroke-width="0.3" stroke-miterlimit="4" stroke="#cccccc" fill-rule="evenodd" fill="#3f3f3f" id="path3221"/>
   <path d="m139.229,91.3109c0,0 -3.61902,0.5384 -3.38403,-3.0355c0.263,-3.9819 -0.15997,-3.9644 0.14105,-5.6353c0.56195,-3.1259 3.37397,-3.03439 3.37397,-3.03439l-0.13099,11.70519z" stroke-width="0.242792" stroke-miterlimit="4" stroke="#cccccc" fill-rule="evenodd" fill="#3f3f3f" id="path3232"/>
  </g>
  <path d="m282.71399,304.86401a112.857,112.857 0 1 1 -225.71399,0a112.857,112.857 0 1 1 225.71399,0z" stroke-width="0" stroke-miterlimit="4" fill="#1a1a1a" id="path2383"/>
  <path d="m575.25,327.11401a90,90 0 1 1 -180,0a90,90 0 1 1 180,0z" stroke-width="0" stroke-miterlimit="4" fill="#1a1a1a" id="path2387"/>
  <path d="m234.539,305.40399a65.0225,65.0225 0 1 1 -130.04501,0a65.0225,65.0225 0 1 1 130.04501,0z" stroke-width="0" stroke-miterlimit="4" fill="#ffffff" id="path3204"/>
  <path d="m540.552,325.62701a50.1378,50.1378 0 1 1 -100.27502,0a50.1378,50.1378 0 1 1 100.27502,0z" stroke-width="0" stroke-miterlimit="4" fill="#ffffff" id="path3206"/>
  <path d="m223.15002,304.26502a53.6333,53.6333 0 1 1 -107.26602,0a53.6333,53.6333 0 1 1 107.26602,0z" stroke-width="0" stroke-miterlimit="4" fill="#000000" id="path2403"/>
  <path d="m523.74597,327.043a40.457,42.1654 0 1 1 -80.914,0a40.457,42.1654 0 1 1 80.914,0z" stroke-width="0" stroke-miterlimit="4" fill="#000000" id="path2405"/>
  <path d="m141.04401,253.01401c0,0 -0.68201,7.51498 6.15197,7.51498c6.83301,0 53.29902,5.245 53.29902,5.245l7.74798,-5.46201l11.38605,21.17502l-5.01502,4.78799l-5.92199,48.05402l4.104,6.38199l-9.112,9.11099l-9.11102,-4.556l-58.539,-6.14899l-8.65699,2.732l-9.112,-11.38901l7.064,-6.159l6.37601,-49.65298l-5.69202,-9.79303l15.031,-11.84097l0.00001,0z" stroke-width="1px" fill-rule="evenodd" fill="#ffff00" id="path2407"/>
  <path d="m227.479,304.40799a57.6864,57.6864 0 1 1 -115.37301,0a57.6864,57.6864 0 1 1 115.37301,0z" stroke-width="2.10424" stroke-miterlimit="4" stroke="url(#linearGradient3207)" fill="none" id="path3199"/>
  <path d="m229.90802,304.681a60.3885,60.3885 0 1 1 -120.77701,0a60.3885,60.3885 0 1 1 120.77701,0z" stroke-width="2.10424" stroke-miterlimit="4" stroke="url(#linearGradient3211)" fill="#ffffff" id="path3209"/>
  <path d="m197.31,301.22601a27.0628,27.0628 0 1 1 -54.12598,0a27.0628,27.0628 0 1 1 54.12598,0z" stroke-width="2.10424" stroke-miterlimit="4" fill="url(#linearGradient3223)" id="path3213"/>
  <path d="m186.49701,301.14801a16.7048,16.7048 0 1 1 -33.409,0a16.7048,16.7048 0 1 1 33.409,0z" stroke-width="20.268" stroke-miterlimit="4" stroke="url(#linearGradient3227)" fill="#000000" id="path3225"/>
  <path d="m470.34399,293.25601l32.43402,5.29499l9.26697,-3.97101l9.92902,11.25302l-8.60498,7.281l-5.29504,33.758l5.95703,10.59l-7.28101,8.60498l-7.94299,-3.97098l-37.72998,-5.29602l-5.95703,4.634l-9.26697,-13.23898l1.98596,-6.61902l7.28101,-39.715l-3.97101,-4.63299l13.90002,-9.92899l5.29499,5.957l-0.00001,0z" stroke-width="1px" fill-rule="evenodd" fill="#ffff00" id="path3233"/>
  <path d="m529.30402,326.85501a43.0068,43.1483 0 1 1 -86.013,0a43.0068,43.1483 0 1 1 86.013,0z" stroke-width="2.14419" stroke-miterlimit="4" stroke="#000000" fill="none" id="path3231"/>
  <path d="m532.17798,326.49301a44.5946,44.7362 0 1 1 -89.19,0a44.5946,44.7362 0 1 1 89.19,0z" stroke-width="2.14419" stroke-miterlimit="4" stroke="#000000" fill="#ffffff" id="path3229"/>
  <path d="m507.57501,326.53299a27.0628,27.0628 0 1 1 -54.12604,0a27.0628,27.0628 0 1 1 54.12604,0z" stroke-width="2.10424" stroke-miterlimit="4" fill="url(#linearGradient3237)" id="path3235"/>
  <path d="m499.86102,327.65799a22.4023,22.4023 0 1 1 -44.80499,0a22.4023,22.4023 0 1 1 44.80499,0z" stroke-width="2.10424" stroke-miterlimit="4" fill="#ffffff" id="path3239"/>
  <path d="m491.18298,327.819a14.2062,14.2062 0 1 1 -28.41296,0a14.2062,14.2062 0 1 1 28.41296,0z" stroke-width="2.10424" stroke-miterlimit="4" fill="url(#linearGradient3247)" id="path3245"/>
  <path d="m492.30701,325.569a13.4027,13.4027 0 1 1 -26.805,0a13.4027,13.4027 0 1 1 26.805,0z" stroke-width="2.10424" stroke-miterlimit="4" fill="#000000" id="path3249"/>
  <path d="m347,193.455c0,0 0.72699,23.314 0.72699,23.314c0,0 150.72803,0.95801 150.72803,0.95801c0,0 -2,-12.45501 -13.45502,-17.24601c-11.45502,-4.791 -138,-7.026 -138,-7.026z" stroke-width="1px" stroke-linejoin="null" stroke-linecap="null" stroke-dasharray="null" stroke="#000000" fill="#000000" id="svg_3"/>
  <path d="m470.77197,213.898l22.41004,0.557c-3.79602,-7.511 -1.16303,-11.405 -8.08203,-11.683l-135.00898,-6.95401l110.94599,10.01401l9.73498,8.06599l0,0.00001z" stroke-width="1.05095px" stroke-linejoin="null" stroke-linecap="null" stroke-dasharray="null" fill="#7f7f7f" id="svg_7"/>
  <text fill="#000000" stroke-width="0" stroke-dasharray="null" stroke-linejoin="null" stroke-linecap="null" opacity="0.5" x="377" y="210" id="svg_1" font-size="24" font-family="serif" text-anchor="middle" xml:space="preserve"/>
  <text fill="#000000" stroke-width="0" stroke-dasharray="null" stroke-linejoin="null" stroke-linecap="null" opacity="0.5" x="511" y="131" id="svg_2" font-size="24" font-family="serif" text-anchor="middle" xml:space="preserve"/>
  <g id="svg_4" display="inline">
   <path id="svg_5" d="m905.885072,-31.433942l3.60296,-85.6844l57.78302,0.66789c0,0 0.49897,8.0972 1.417,92.59649c-5.78101,-2.49398 -34.50702,-5.08699 -62.80298,-7.57998z" stroke-width="0.918886px" fill-rule="evenodd" fill="#3f3f3f"/>
   <path id="svg_6" d="m975.529052,-20.491962l-1.72198,-95.61419l85.49298,-0.5801l10.70898,175.8833l-47.32001,0.06099c0,0 -22.46899,-52.98099 -47.15997,-79.75z" stroke-width="1.02239px" fill-rule="evenodd" fill="#3f3f3f"/>
   <path id="svg_8" d="m877.586062,-105.684252l-7.76502,75.49629l17.68799,0.431l8.62799,-89.73229" stroke-width="1px" stroke="#000000" fill-rule="evenodd" fill="#3f3f3f"/>
   <path id="svg_9" d="m881.038022,-123.803352c0,0 -4.89099,0.3213 -4.52997,-3.2355c0.40198,-3.9628 -0.24603,-3.9454 0.21601,-5.6082c0.86297,-3.111 5.177,-3.0199 5.177,-3.0199l-0.86304,11.8636z" stroke-width="0.3" stroke-miterlimit="4" stroke="#cccccc" fill-rule="evenodd" fill="#3f3f3f"/>
   <path id="svg_10" d="m868.110042,-107.277052c0,0 -3.61902,0.5384 -3.38403,-3.0355c0.263,-3.9819 -0.15997,-3.9644 0.14105,-5.6353c0.56195,-3.1259 3.37397,-3.03439 3.37397,-3.03439l-0.13099,11.70519z" stroke-width="0.242792" stroke-miterlimit="4" stroke="#cccccc" fill-rule="evenodd" fill="#3f3f3f"/>
  </g>
 </g>
</svg>